<svg xmlns="http://www.w3.org/2000/svg" viewBox="0 0 48 48" width="20" height="20" aria-hidden="true">
  <!-- Official multicolor "G" -->
  <path fill="#FFC107" d="M43.611,20.083H42V20H24v8h11.303c-1.651,4.657-6.08,8-11.303,8c-6.627,0-12-5.373-12-12 s5.373-12,12-12c3.059,0,5.842,1.152,7.961,3.039l5.657-5.657C32.411,4.158,28.399,2,24,2C12.955,2,4,10.955,4,22 s8.955,20,20,20c11.046,0,20-8.955,20-20C44,21.334,43.862,20.691,43.611,20.083z"/>
  <path fill="#FF3D00" d="M6.306,14.691l6.571,4.819C14.251,16.098,18.77,14,24,14c3.059,0,5.842,1.152,7.961,3.039l5.657-5.657 C32.411,4.158,28.399,2,24,2C15.363,2,8.074,6.337,6.306,12.691z"/>
  <path fill="#4CAF50" d="M24,42c5.095,0,9.8-1.953,13.343-5.137l-6.158-5.21C29.01,33.873,26.651,35,24,35 c-5.186,0-9.705-3.552-11.309-8.368l-6.54,5.046C8.835,37.663,15.874,42,24,42z"/>
  <path fill="#1976D2" d="M43.611,20.083H42V20H24v8h11.303c-1.651,4.657-6.08,8-11.303,8c-5.186,0-9.705-3.552-11.309-8.368l-6.54,5.046 C8.835,37.663,15.874,42,24,42c8.137,0,15.23-4.427,18.608-10.917C43.521,29.925,44,27.027,44,24 C44,22.915,43.9,21.854,43.611,20.083z"/>
</svg>
