<!-- public/icons/teams.svg -->
<svg width="28" height="28" viewBox="0 0 24 24" fill="none"
     xmlns="http://www.w3.org/2000/svg">
  <!-- heads -->
  <circle cx="8" cy="7.5" r="2.5" stroke="currentColor" stroke-width="1.8"/>
  <circle cx="16" cy="7.5" r="2.5" stroke="currentColor" stroke-width="1.8"/>
  <!-- torsos -->
  <path d="M3.5 17.25c0-2.35 1.9-4.25 4.25-4.25h.5c2.35 0 4.25 1.9 4.25 4.25v.75
           c0 .41-.34.75-.75.75H4.25c-.41 0-.75-.34-.75-.75v-.75Z"
        stroke="currentColor" stroke-width="1.8" stroke-linejoin="round"/>
  <path d="M11.5 17.25c0-2.35 1.9-4.25 4.25-4.25h.5c2.35 0 4.25 1.9 4.25 4.25v.75
           c0 .41-.34.75-.75.75H12.25c-.41 0-.75-.34-.75-.75v-.75Z"
        stroke="currentColor" stroke-width="1.8" stroke-linejoin="round"/>
  <!-- subtle center link (team connection) -->
  <path d="M10.25 12h3.5" stroke="currentColor" stroke-width="1.4" stroke-linecap="round"/>
</svg>
