<?xml version="1.0" encoding="UTF-8"?>
<svg xmlns="http://www.w3.org/2000/svg" xmlns:xlink="http://www.w3.org/1999/xlink" width="4001" height="4001" viewBox="0 0 4001 4001">
<path fill-rule="evenodd" fill="rgb(100%, 100%, 100%)" fill-opacity="1" d="M 0.109375 0.210938 L 4000.109375 0.210938 L 4000.109375 4000.210938 L 0.109375 4000.210938 L 0.109375 0.210938 "/>
<path fill-rule="evenodd" fill="rgb(93.75%, 93.75%, 94.139099%)" fill-opacity="1" d="M 1049.128906 1461.578125 L 2951.089844 1461.578125 L 2951.089844 2886.308594 L 1049.128906 2886.308594 L 1049.128906 1461.578125 "/>
<path fill-rule="evenodd" fill="rgb(99.609375%, 28.637695%, 0%)" fill-opacity="1" d="M 1049.128906 1182.910156 L 2951.089844 1182.910156 L 2951.089844 1461.578125 L 1049.128906 1461.578125 L 1049.128906 1182.910156 "/>
<path fill-rule="evenodd" fill="rgb(30.200195%, 30.200195%, 30.200195%)" fill-opacity="1" d="M 1263.371094 1261.28125 C 1297.03125 1261.28125 1324.328125 1288.578125 1324.328125 1322.238281 C 1324.328125 1355.910156 1297.03125 1383.199219 1263.371094 1383.199219 C 1229.699219 1383.199219 1202.410156 1355.910156 1202.410156 1322.238281 C 1202.410156 1288.578125 1229.699219 1261.28125 1263.371094 1261.28125 "/>
<path fill-rule="evenodd" fill="rgb(30.200195%, 30.200195%, 30.200195%)" fill-opacity="1" d="M 1508.949219 1261.28125 C 1542.621094 1261.28125 1569.910156 1288.578125 1569.910156 1322.238281 C 1569.910156 1355.910156 1542.621094 1383.199219 1508.949219 1383.199219 C 1475.28125 1383.199219 1447.988281 1355.910156 1447.988281 1322.238281 C 1447.988281 1288.578125 1475.28125 1261.28125 1508.949219 1261.28125 "/>
<path fill-rule="evenodd" fill="rgb(30.200195%, 30.200195%, 30.200195%)" fill-opacity="1" d="M 1754.53125 1261.28125 C 1788.199219 1261.28125 1815.488281 1288.578125 1815.488281 1322.238281 C 1815.488281 1355.910156 1788.199219 1383.199219 1754.53125 1383.199219 C 1720.859375 1383.199219 1693.570312 1355.910156 1693.570312 1322.238281 C 1693.570312 1288.578125 1720.859375 1261.28125 1754.53125 1261.28125 "/>
<path fill-rule="evenodd" fill="rgb(30.200195%, 30.200195%, 30.200195%)" fill-opacity="1" d="M 2000.109375 1261.28125 C 2033.78125 1261.28125 2061.070312 1288.578125 2061.070312 1322.238281 C 2061.070312 1355.910156 2033.78125 1383.199219 2000.109375 1383.199219 C 1966.441406 1383.199219 1939.148438 1355.910156 1939.148438 1322.238281 C 1939.148438 1288.578125 1966.441406 1261.28125 2000.109375 1261.28125 "/>
<path fill-rule="evenodd" fill="rgb(30.200195%, 30.200195%, 30.200195%)" fill-opacity="1" d="M 2245.691406 1261.28125 C 2279.359375 1261.28125 2306.648438 1288.578125 2306.648438 1322.238281 C 2306.648438 1355.910156 2279.359375 1383.199219 2245.691406 1383.199219 C 2212.03125 1383.199219 2184.730469 1355.910156 2184.730469 1322.238281 C 2184.730469 1288.578125 2212.03125 1261.28125 2245.691406 1261.28125 "/>
<path fill-rule="evenodd" fill="rgb(30.200195%, 30.200195%, 30.200195%)" fill-opacity="1" d="M 2491.269531 1261.28125 C 2524.941406 1261.28125 2552.230469 1288.578125 2552.230469 1322.238281 C 2552.230469 1355.910156 2524.941406 1383.199219 2491.269531 1383.199219 C 2457.609375 1383.199219 2430.308594 1355.910156 2430.308594 1322.238281 C 2430.308594 1288.578125 2457.609375 1261.28125 2491.269531 1261.28125 "/>
<path fill-rule="evenodd" fill="rgb(30.200195%, 30.200195%, 30.200195%)" fill-opacity="1" d="M 2736.859375 1261.28125 C 2770.519531 1261.28125 2797.820312 1288.578125 2797.820312 1322.238281 C 2797.820312 1355.910156 2770.519531 1383.199219 2736.859375 1383.199219 C 2703.191406 1383.199219 2675.898438 1355.910156 2675.898438 1322.238281 C 2675.898438 1288.578125 2703.191406 1261.28125 2736.859375 1261.28125 "/>
<path fill-rule="evenodd" fill="rgb(19.993591%, 19.993591%, 19.993591%)" fill-opacity="1" d="M 1263.371094 1114.109375 C 1276.300781 1114.109375 1286.878906 1124.691406 1286.878906 1137.621094 L 1286.878906 1298.730469 C 1286.878906 1311.660156 1276.300781 1322.238281 1263.371094 1322.238281 C 1250.429688 1322.238281 1239.851562 1311.660156 1239.851562 1298.730469 L 1239.851562 1137.621094 C 1239.851562 1124.691406 1250.429688 1114.109375 1263.371094 1114.109375 "/>
<path fill-rule="evenodd" fill="rgb(19.993591%, 19.993591%, 19.993591%)" fill-opacity="1" d="M 1508.949219 1114.109375 C 1521.878906 1114.109375 1532.460938 1124.691406 1532.460938 1137.621094 L 1532.460938 1298.730469 C 1532.460938 1311.660156 1521.878906 1322.238281 1508.949219 1322.238281 C 1496.019531 1322.238281 1485.429688 1311.660156 1485.429688 1298.730469 L 1485.429688 1137.621094 C 1485.429688 1124.691406 1496.019531 1114.109375 1508.949219 1114.109375 "/>
<path fill-rule="evenodd" fill="rgb(19.993591%, 19.993591%, 19.993591%)" fill-opacity="1" d="M 1754.53125 1114.109375 C 1767.460938 1114.109375 1778.039062 1124.691406 1778.039062 1137.621094 L 1778.039062 1298.730469 C 1778.039062 1311.660156 1767.460938 1322.238281 1754.53125 1322.238281 C 1741.601562 1322.238281 1731.019531 1311.660156 1731.019531 1298.730469 L 1731.019531 1137.621094 C 1731.019531 1124.691406 1741.601562 1114.109375 1754.53125 1114.109375 "/>
<path fill-rule="evenodd" fill="rgb(19.993591%, 19.993591%, 19.993591%)" fill-opacity="1" d="M 2000.109375 1114.109375 C 2013.039062 1114.109375 2023.628906 1124.691406 2023.628906 1137.621094 L 2023.628906 1298.730469 C 2023.628906 1311.660156 2013.039062 1322.238281 2000.109375 1322.238281 C 1987.179688 1322.238281 1976.601562 1311.660156 1976.601562 1298.730469 L 1976.601562 1137.621094 C 1976.601562 1124.691406 1987.179688 1114.109375 2000.109375 1114.109375 "/>
<path fill-rule="evenodd" fill="rgb(19.993591%, 19.993591%, 19.993591%)" fill-opacity="1" d="M 2245.691406 1114.109375 C 2258.628906 1114.109375 2269.210938 1124.691406 2269.210938 1137.621094 L 2269.210938 1298.730469 C 2269.210938 1311.660156 2258.628906 1322.238281 2245.691406 1322.238281 C 2232.761719 1322.238281 2222.179688 1311.660156 2222.179688 1298.730469 L 2222.179688 1137.621094 C 2222.179688 1124.691406 2232.761719 1114.109375 2245.691406 1114.109375 "/>
<path fill-rule="evenodd" fill="rgb(19.993591%, 19.993591%, 19.993591%)" fill-opacity="1" d="M 2491.269531 1114.109375 L 2491.28125 1114.109375 C 2504.210938 1114.109375 2514.789062 1124.691406 2514.789062 1137.621094 L 2514.789062 1298.730469 C 2514.789062 1311.660156 2504.210938 1322.238281 2491.28125 1322.238281 L 2491.269531 1322.238281 C 2478.339844 1322.238281 2467.761719 1311.660156 2467.761719 1298.730469 L 2467.761719 1137.621094 C 2467.761719 1124.691406 2478.339844 1114.109375 2491.269531 1114.109375 "/>
<path fill-rule="evenodd" fill="rgb(19.993591%, 19.993591%, 19.993591%)" fill-opacity="1" d="M 2736.859375 1114.109375 C 2749.789062 1114.109375 2760.371094 1124.691406 2760.371094 1137.621094 L 2760.371094 1298.730469 C 2760.371094 1311.660156 2749.789062 1322.238281 2736.859375 1322.238281 C 2723.921875 1322.238281 2713.339844 1311.660156 2713.339844 1298.730469 L 2713.339844 1137.621094 C 2713.339844 1124.691406 2723.921875 1114.109375 2736.859375 1114.109375 "/>
<path fill-rule="evenodd" fill="rgb(90.234375%, 90.234375%, 90.234375%)" fill-opacity="1" d="M 1320.839844 1674.078125 C 1346.808594 1674.078125 1367.859375 1695.128906 1367.859375 1721.101562 C 1367.859375 1747.070312 1346.808594 1768.121094 1320.839844 1768.121094 C 1294.871094 1768.121094 1273.820312 1747.070312 1273.820312 1721.101562 C 1273.820312 1695.128906 1294.871094 1674.078125 1320.839844 1674.078125 "/>
<path fill-rule="evenodd" fill="rgb(90.234375%, 90.234375%, 90.234375%)" fill-opacity="1" d="M 1547.261719 1674.078125 C 1573.230469 1674.078125 1594.289062 1695.128906 1594.289062 1721.101562 C 1594.289062 1747.070312 1573.230469 1768.121094 1547.261719 1768.121094 C 1521.289062 1768.121094 1500.238281 1747.070312 1500.238281 1721.101562 C 1500.238281 1695.128906 1521.289062 1674.078125 1547.261719 1674.078125 "/>
<path fill-rule="evenodd" fill="rgb(90.234375%, 90.234375%, 90.234375%)" fill-opacity="1" d="M 1773.691406 1674.078125 C 1799.660156 1674.078125 1820.710938 1695.128906 1820.710938 1721.101562 C 1820.710938 1747.070312 1799.660156 1768.121094 1773.691406 1768.121094 C 1747.71875 1768.121094 1726.660156 1747.070312 1726.660156 1721.101562 C 1726.660156 1695.128906 1747.71875 1674.078125 1773.691406 1674.078125 "/>
<path fill-rule="evenodd" fill="rgb(70.117188%, 70.117188%, 70.117188%)" fill-opacity="1" d="M 2000.109375 1674.078125 C 2026.078125 1674.078125 2047.128906 1695.128906 2047.128906 1721.101562 C 2047.128906 1747.070312 2026.078125 1768.121094 2000.109375 1768.121094 C 1974.140625 1768.121094 1953.089844 1747.070312 1953.089844 1721.101562 C 1953.089844 1695.128906 1974.140625 1674.078125 2000.109375 1674.078125 "/>
<path fill-rule="evenodd" fill="rgb(70.117188%, 70.117188%, 70.117188%)" fill-opacity="1" d="M 2226.539062 1674.078125 C 2252.5 1674.078125 2273.558594 1695.128906 2273.558594 1721.101562 C 2273.558594 1747.070312 2252.5 1768.121094 2226.539062 1768.121094 C 2200.558594 1768.121094 2179.511719 1747.070312 2179.511719 1721.101562 C 2179.511719 1695.128906 2200.558594 1674.078125 2226.539062 1674.078125 "/>
<path fill-rule="evenodd" fill="rgb(70.117188%, 70.117188%, 70.117188%)" fill-opacity="1" d="M 2452.960938 1674.078125 C 2478.929688 1674.078125 2499.980469 1695.128906 2499.980469 1721.101562 C 2499.980469 1747.070312 2478.929688 1768.121094 2452.960938 1768.121094 C 2426.988281 1768.121094 2405.941406 1747.070312 2405.941406 1721.101562 C 2405.941406 1695.128906 2426.988281 1674.078125 2452.960938 1674.078125 "/>
<path fill-rule="evenodd" fill="rgb(98.4375%, 27.830505%, 12.939453%)" fill-opacity="1" d="M 2679.378906 1674.078125 C 2705.351562 1674.078125 2726.410156 1695.128906 2726.410156 1721.101562 C 2726.410156 1747.070312 2705.351562 1768.121094 2679.378906 1768.121094 C 2653.410156 1768.121094 2632.359375 1747.070312 2632.359375 1721.101562 C 2632.359375 1695.128906 2653.410156 1674.078125 2679.378906 1674.078125 "/>
<path fill-rule="evenodd" fill="rgb(70.117188%, 70.117188%, 70.117188%)" fill-opacity="1" d="M 1320.839844 1900.5 C 1346.808594 1900.5 1367.859375 1921.550781 1367.859375 1947.519531 C 1367.859375 1973.488281 1346.808594 1994.550781 1320.839844 1994.550781 C 1294.871094 1994.550781 1273.820312 1973.488281 1273.820312 1947.519531 C 1273.820312 1921.550781 1294.871094 1900.5 1320.839844 1900.5 "/>
<path fill-rule="evenodd" fill="rgb(70.117188%, 70.117188%, 70.117188%)" fill-opacity="1" d="M 1320.839844 2126.921875 C 1346.808594 2126.921875 1367.859375 2147.980469 1367.859375 2173.949219 C 1367.859375 2199.921875 1346.808594 2220.96875 1320.839844 2220.96875 C 1294.871094 2220.96875 1273.820312 2199.921875 1273.820312 2173.949219 C 1273.820312 2147.980469 1294.871094 2126.921875 1320.839844 2126.921875 "/>
<path fill-rule="evenodd" fill="rgb(70.117188%, 70.117188%, 70.117188%)" fill-opacity="1" d="M 1320.839844 2353.351562 C 1346.808594 2353.351562 1367.859375 2374.398438 1367.859375 2400.371094 C 1367.859375 2426.339844 1346.808594 2447.390625 1320.839844 2447.390625 C 1294.871094 2447.390625 1273.820312 2426.339844 1273.820312 2400.371094 C 1273.820312 2374.398438 1294.871094 2353.351562 1320.839844 2353.351562 "/>
<path fill-rule="evenodd" fill="rgb(70.117188%, 70.117188%, 70.117188%)" fill-opacity="1" d="M 1320.839844 2579.769531 C 1346.808594 2579.769531 1367.859375 2600.820312 1367.859375 2626.789062 C 1367.859375 2652.761719 1346.808594 2673.820312 1320.839844 2673.820312 C 1294.871094 2673.820312 1273.820312 2652.761719 1273.820312 2626.789062 C 1273.820312 2600.820312 1294.871094 2579.769531 1320.839844 2579.769531 "/>
<path fill-rule="evenodd" fill="rgb(70.117188%, 70.117188%, 70.117188%)" fill-opacity="1" d="M 1547.261719 1900.5 C 1573.230469 1900.5 1594.289062 1921.550781 1594.289062 1947.519531 C 1594.289062 1973.488281 1573.230469 1994.550781 1547.261719 1994.550781 C 1521.289062 1994.550781 1500.238281 1973.488281 1500.238281 1947.519531 C 1500.238281 1921.550781 1521.289062 1900.5 1547.261719 1900.5 "/>
<path fill-rule="evenodd" fill="rgb(70.117188%, 70.117188%, 70.117188%)" fill-opacity="1" d="M 1547.261719 2126.921875 C 1573.230469 2126.921875 1594.289062 2147.980469 1594.289062 2173.949219 C 1594.289062 2199.921875 1573.230469 2220.96875 1547.261719 2220.96875 C 1521.289062 2220.96875 1500.238281 2199.921875 1500.238281 2173.949219 C 1500.238281 2147.980469 1521.289062 2126.921875 1547.261719 2126.921875 "/>
<path fill-rule="evenodd" fill="rgb(70.117188%, 70.117188%, 70.117188%)" fill-opacity="1" d="M 1547.261719 2353.351562 C 1573.230469 2353.351562 1594.289062 2374.398438 1594.289062 2400.371094 C 1594.289062 2426.339844 1573.230469 2447.390625 1547.261719 2447.390625 C 1521.289062 2447.390625 1500.238281 2426.339844 1500.238281 2400.371094 C 1500.238281 2374.398438 1521.289062 2353.351562 1547.261719 2353.351562 "/>
<path fill-rule="evenodd" fill="rgb(70.117188%, 70.117188%, 70.117188%)" fill-opacity="1" d="M 1547.261719 2579.769531 C 1573.230469 2579.769531 1594.289062 2600.820312 1594.289062 2626.789062 C 1594.289062 2652.761719 1573.230469 2673.820312 1547.261719 2673.820312 C 1521.289062 2673.820312 1500.238281 2652.761719 1500.238281 2626.789062 C 1500.238281 2600.820312 1521.289062 2579.769531 1547.261719 2579.769531 "/>
<path fill-rule="evenodd" fill="rgb(70.117188%, 70.117188%, 70.117188%)" fill-opacity="1" d="M 1773.691406 1900.5 C 1799.660156 1900.5 1820.710938 1921.550781 1820.710938 1947.519531 C 1820.710938 1973.488281 1799.660156 1994.550781 1773.691406 1994.550781 C 1747.71875 1994.550781 1726.660156 1973.488281 1726.660156 1947.519531 C 1726.660156 1921.550781 1747.71875 1900.5 1773.691406 1900.5 "/>
<path fill-rule="evenodd" fill="rgb(70.117188%, 70.117188%, 70.117188%)" fill-opacity="1" d="M 1773.691406 2126.921875 C 1799.660156 2126.921875 1820.710938 2147.980469 1820.710938 2173.949219 C 1820.710938 2199.921875 1799.660156 2220.96875 1773.691406 2220.96875 C 1747.71875 2220.96875 1726.660156 2199.921875 1726.660156 2173.949219 C 1726.660156 2147.980469 1747.71875 2126.921875 1773.691406 2126.921875 "/>
<path fill-rule="evenodd" fill="rgb(70.117188%, 70.117188%, 70.117188%)" fill-opacity="1" d="M 1773.691406 2353.351562 C 1799.660156 2353.351562 1820.710938 2374.398438 1820.710938 2400.371094 C 1820.710938 2426.339844 1799.660156 2447.390625 1773.691406 2447.390625 C 1747.71875 2447.390625 1726.660156 2426.339844 1726.660156 2400.371094 C 1726.660156 2374.398438 1747.71875 2353.351562 1773.691406 2353.351562 "/>
<path fill-rule="evenodd" fill="rgb(70.117188%, 70.117188%, 70.117188%)" fill-opacity="1" d="M 1773.691406 2579.769531 C 1799.660156 2579.769531 1820.710938 2600.820312 1820.710938 2626.789062 C 1820.710938 2652.761719 1799.660156 2673.820312 1773.691406 2673.820312 C 1747.71875 2673.820312 1726.660156 2652.761719 1726.660156 2626.789062 C 1726.660156 2600.820312 1747.71875 2579.769531 1773.691406 2579.769531 "/>
<path fill-rule="evenodd" fill="rgb(70.117188%, 70.117188%, 70.117188%)" fill-opacity="1" d="M 2000.109375 1900.5 C 2026.078125 1900.5 2047.128906 1921.550781 2047.128906 1947.519531 C 2047.128906 1973.488281 2026.078125 1994.550781 2000.109375 1994.550781 C 1974.140625 1994.550781 1953.089844 1973.488281 1953.089844 1947.519531 C 1953.089844 1921.550781 1974.140625 1900.5 2000.109375 1900.5 "/>
<path fill-rule="evenodd" fill="rgb(70.117188%, 70.117188%, 70.117188%)" fill-opacity="1" d="M 2000.109375 2126.921875 C 2026.078125 2126.921875 2047.128906 2147.980469 2047.128906 2173.949219 C 2047.128906 2199.921875 2026.078125 2220.96875 2000.109375 2220.96875 C 1974.140625 2220.96875 1953.089844 2199.921875 1953.089844 2173.949219 C 1953.089844 2147.980469 1974.140625 2126.921875 2000.109375 2126.921875 "/>
<path fill-rule="evenodd" fill="rgb(70.117188%, 70.117188%, 70.117188%)" fill-opacity="1" d="M 2000.109375 2353.351562 C 2026.078125 2353.351562 2047.128906 2374.398438 2047.128906 2400.371094 C 2047.128906 2426.339844 2026.078125 2447.390625 2000.109375 2447.390625 C 1974.140625 2447.390625 1953.089844 2426.339844 1953.089844 2400.371094 C 1953.089844 2374.398438 1974.140625 2353.351562 2000.109375 2353.351562 "/>
<path fill-rule="evenodd" fill="rgb(70.117188%, 70.117188%, 70.117188%)" fill-opacity="1" d="M 2000.109375 2579.769531 C 2026.078125 2579.769531 2047.128906 2600.820312 2047.128906 2626.789062 C 2047.128906 2652.761719 2026.078125 2673.820312 2000.109375 2673.820312 C 1974.140625 2673.820312 1953.089844 2652.761719 1953.089844 2626.789062 C 1953.089844 2600.820312 1974.140625 2579.769531 2000.109375 2579.769531 "/>
<path fill-rule="evenodd" fill="rgb(70.117188%, 70.117188%, 70.117188%)" fill-opacity="1" d="M 2226.539062 1900.5 C 2252.5 1900.5 2273.558594 1921.550781 2273.558594 1947.519531 C 2273.558594 1973.488281 2252.5 1994.550781 2226.539062 1994.550781 C 2200.558594 1994.550781 2179.511719 1973.488281 2179.511719 1947.519531 C 2179.511719 1921.550781 2200.558594 1900.5 2226.539062 1900.5 "/>
<path fill-rule="evenodd" fill="rgb(70.117188%, 70.117188%, 70.117188%)" fill-opacity="1" d="M 2226.539062 2126.921875 C 2252.5 2126.921875 2273.558594 2147.980469 2273.558594 2173.949219 C 2273.558594 2199.921875 2252.5 2220.96875 2226.539062 2220.96875 C 2200.558594 2220.96875 2179.511719 2199.921875 2179.511719 2173.949219 C 2179.511719 2147.980469 2200.558594 2126.921875 2226.539062 2126.921875 "/>
<path fill-rule="evenodd" fill="rgb(70.117188%, 70.117188%, 70.117188%)" fill-opacity="1" d="M 2226.539062 2353.351562 C 2252.5 2353.351562 2273.558594 2374.398438 2273.558594 2400.371094 C 2273.558594 2426.339844 2252.5 2447.390625 2226.539062 2447.390625 C 2200.558594 2447.390625 2179.511719 2426.339844 2179.511719 2400.371094 C 2179.511719 2374.398438 2200.558594 2353.351562 2226.539062 2353.351562 "/>
<path fill-rule="evenodd" fill="rgb(90.234375%, 90.234375%, 90.234375%)" fill-opacity="1" d="M 2226.539062 2579.769531 C 2252.5 2579.769531 2273.558594 2600.820312 2273.558594 2626.789062 C 2273.558594 2652.761719 2252.5 2673.820312 2226.539062 2673.820312 C 2200.558594 2673.820312 2179.511719 2652.761719 2179.511719 2626.789062 C 2179.511719 2600.820312 2200.558594 2579.769531 2226.539062 2579.769531 "/>
<path fill-rule="evenodd" fill="rgb(70.117188%, 70.117188%, 70.117188%)" fill-opacity="1" d="M 2452.960938 1900.5 C 2478.929688 1900.5 2499.980469 1921.550781 2499.980469 1947.519531 C 2499.980469 1973.488281 2478.929688 1994.550781 2452.960938 1994.550781 C 2426.988281 1994.550781 2405.941406 1973.488281 2405.941406 1947.519531 C 2405.941406 1921.550781 2426.988281 1900.5 2452.960938 1900.5 "/>
<path fill-rule="evenodd" fill="rgb(70.117188%, 70.117188%, 70.117188%)" fill-opacity="1" d="M 2452.960938 2126.921875 C 2478.929688 2126.921875 2499.980469 2147.980469 2499.980469 2173.949219 C 2499.980469 2199.921875 2478.929688 2220.96875 2452.960938 2220.96875 C 2426.988281 2220.96875 2405.941406 2199.921875 2405.941406 2173.949219 C 2405.941406 2147.980469 2426.988281 2126.921875 2452.960938 2126.921875 "/>
<path fill-rule="evenodd" fill="rgb(70.117188%, 70.117188%, 70.117188%)" fill-opacity="1" d="M 2452.960938 2353.351562 C 2478.929688 2353.351562 2499.980469 2374.398438 2499.980469 2400.371094 C 2499.980469 2426.339844 2478.929688 2447.390625 2452.960938 2447.390625 C 2426.988281 2447.390625 2405.941406 2426.339844 2405.941406 2400.371094 C 2405.941406 2374.398438 2426.988281 2353.351562 2452.960938 2353.351562 "/>
<path fill-rule="evenodd" fill="rgb(90.234375%, 90.234375%, 90.234375%)" fill-opacity="1" d="M 2452.960938 2579.769531 C 2478.929688 2579.769531 2499.980469 2600.820312 2499.980469 2626.789062 C 2499.980469 2652.761719 2478.929688 2673.820312 2452.960938 2673.820312 C 2426.988281 2673.820312 2405.941406 2652.761719 2405.941406 2626.789062 C 2405.941406 2600.820312 2426.988281 2579.769531 2452.960938 2579.769531 "/>
<path fill-rule="evenodd" fill="rgb(98.4375%, 27.830505%, 12.939453%)" fill-opacity="1" d="M 2679.378906 1900.5 C 2705.351562 1900.5 2726.410156 1921.550781 2726.410156 1947.519531 C 2726.410156 1973.488281 2705.351562 1994.550781 2679.378906 1994.550781 C 2653.410156 1994.550781 2632.359375 1973.488281 2632.359375 1947.519531 C 2632.359375 1921.550781 2653.410156 1900.5 2679.378906 1900.5 "/>
<path fill-rule="evenodd" fill="rgb(98.4375%, 27.830505%, 12.939453%)" fill-opacity="1" d="M 2679.378906 2126.921875 C 2705.351562 2126.921875 2726.410156 2147.980469 2726.410156 2173.949219 C 2726.410156 2199.921875 2705.351562 2220.96875 2679.378906 2220.96875 C 2653.410156 2220.96875 2632.359375 2199.921875 2632.359375 2173.949219 C 2632.359375 2147.980469 2653.410156 2126.921875 2679.378906 2126.921875 "/>
<path fill-rule="evenodd" fill="rgb(98.4375%, 27.830505%, 12.939453%)" fill-opacity="1" d="M 2679.378906 2353.351562 C 2705.351562 2353.351562 2726.410156 2374.398438 2726.410156 2400.371094 C 2726.410156 2426.339844 2705.351562 2447.390625 2679.378906 2447.390625 C 2653.410156 2447.390625 2632.359375 2426.339844 2632.359375 2400.371094 C 2632.359375 2374.398438 2653.410156 2353.351562 2679.378906 2353.351562 "/>
<path fill-rule="evenodd" fill="rgb(90.234375%, 90.234375%, 90.234375%)" fill-opacity="1" d="M 2679.378906 2579.769531 C 2705.351562 2579.769531 2726.410156 2600.820312 2726.410156 2626.789062 C 2726.410156 2652.761719 2705.351562 2673.820312 2679.378906 2673.820312 C 2653.410156 2673.820312 2632.359375 2652.761719 2632.359375 2626.789062 C 2632.359375 2600.820312 2653.410156 2579.769531 2679.378906 2579.769531 "/>
</svg>
